<?xml version="1.0" encoding="utf-8"?>
<!-- Generator: Adobe Illustrator 16.0.0, SVG Export Plug-In . SVG Version: 6.00 Build 0)  -->
<!DOCTYPE svg PUBLIC "-//W3C//DTD SVG 1.1//EN" "http://www.w3.org/Graphics/SVG/1.1/DTD/svg11.dtd">
<svg version="1.1" id="Layer_1" xmlns="http://www.w3.org/2000/svg" xmlns:xlink="http://www.w3.org/1999/xlink" x="0px" y="0px"
	 width="721px" height="168px" viewBox="0 0 721 168" enable-background="new 0 0 721 168" xml:space="preserve">
<g>
	<path fill="#E5E5E5" d="M639.245,88.099c1.368-0.323,3.563-0.54,5.724-0.54c3.132,0,5.147,0.54,6.623,1.765
		c1.26,0.936,2.052,2.375,2.052,4.283c0,2.376-1.584,4.428-4.104,5.327v0.108c2.304,0.54,5.004,2.447,5.004,6.047
		c0,2.088-0.828,3.672-2.088,4.859c-1.656,1.548-4.392,2.268-8.352,2.268c-2.159,0-3.815-0.144-4.859-0.288V88.099z M642.377,98.034
		h2.844c3.275,0,5.22-1.765,5.22-4.104c0-2.808-2.124-3.96-5.292-3.96c-1.439,0-2.268,0.108-2.771,0.216V98.034z M642.377,109.624
		c0.648,0.108,1.512,0.145,2.628,0.145c3.239,0,6.227-1.188,6.227-4.716c0-3.275-2.843-4.68-6.263-4.68h-2.592V109.624z"/>
	<path fill="#E5E5E5" d="M671.644,100.625h-9.395v8.747h10.511V112h-13.679V87.739h13.139v2.628h-9.971v7.667h9.395V100.625z"/>
	<path fill="#E5E5E5" d="M683.092,90.402h-7.379v-2.663h17.962v2.663h-7.415V112h-3.168V90.402z"/>
	<path fill="#E5E5E5" d="M697.96,104.369L695.44,112h-3.24l8.243-24.261h3.78L712.502,112h-3.348l-2.592-7.631H697.96z
		 M705.915,101.921l-2.412-6.982c-0.504-1.584-0.863-3.024-1.224-4.428h-0.107c-0.324,1.403-0.721,2.916-1.188,4.392l-2.376,7.019
		H705.915z"/>
</g>
<g>
	<path fill="#B8B8B8" d="M195.902,50.4c2.316,0.703,4.325,1.54,6.027,2.508c1.701,0.968,3.05,1.995,4.048,3.08
		c0.997,1.086,1.496,2.01,1.496,2.771c0,1.115-0.308,1.951-0.924,2.508c-0.616,0.559-1.247,0.836-1.892,0.836
		c-0.646,0-1.379-0.365-2.2-1.1c-0.822-0.732-1.834-1.524-3.036-2.376c-1.203-0.85-2.699-1.642-4.488-2.376
		c-1.79-0.732-3.975-1.1-6.556-1.1c-3.286,0-6.19,0.79-8.712,2.371c-2.523,1.582-4.65,3.622-6.38,6.122
		c-1.731,2.5-3.036,5.331-3.916,8.492s-1.32,6.293-1.32,9.396c0,3.162,0.41,6.224,1.232,9.183c0.821,2.96,2.097,5.589,3.828,7.888
		c1.73,2.299,3.96,4.139,6.688,5.519s5.969,2.069,9.724,2.069c2.757,0,5.06-0.322,6.908-0.969c1.849-0.645,3.402-1.349,4.664-2.111
		c1.261-0.762,2.273-1.466,3.036-2.112c0.762-0.645,1.437-0.968,2.024-0.968c0.82,0,1.466,0.25,1.936,0.748
		c0.469,0.499,0.704,1.306,0.704,2.42c0,0.704-0.484,1.555-1.452,2.552c-0.968,0.998-2.318,1.951-4.048,2.86
		c-1.731,0.91-3.799,1.702-6.204,2.376c-2.406,0.675-5.046,1.012-7.92,1.012c-4.811,0-8.976-0.822-12.496-2.467
		s-6.424-3.852-8.712-6.62c-2.288-2.77-3.99-6-5.104-9.692c-1.115-3.692-1.672-7.586-1.672-11.684c0-4.037,0.557-7.989,1.672-11.855
		c1.114-3.865,2.801-7.299,5.06-10.299c2.258-3,5.089-5.423,8.492-7.27c3.401-1.846,7.421-2.77,12.056-2.77
		C191.106,49.344,193.584,49.696,195.902,50.4z"/>
	<path fill="#B8B8B8" d="M224.633,108.041c0,2.641-1.056,3.959-3.168,3.959c-2.111,0-3.168-1.318-3.168-3.959V69.143
		c0-2.639,1.057-3.959,3.168-3.959c2.112,0,3.168,1.32,3.168,3.959v4.303h0.177c1.173-2.581,2.684-4.604,4.531-6.066
		c1.849-1.464,3.77-2.195,5.765-2.195c1.524,0,2.609,0.346,3.256,1.033c0.645,0.688,0.968,1.463,0.968,2.323
		c0,0.861-0.338,1.55-1.012,2.065c-0.675,0.518-1.775,0.947-3.3,1.291c-0.88,0.174-1.923,0.518-3.124,1.033
		c-1.203,0.517-2.332,1.305-3.389,2.366c-1.056,1.062-1.966,2.439-2.728,4.132c-0.764,1.692-1.145,3.801-1.145,6.325V108.041z"/>
	<path fill="#B8B8B8" d="M281.788,97.671c-0.852,2.841-2.112,5.321-3.784,7.444s-3.771,3.802-6.292,5.035
		c-2.522,1.233-5.456,1.85-8.8,1.85s-6.278-0.616-8.8-1.85c-2.523-1.233-4.62-2.912-6.292-5.035s-2.935-4.604-3.784-7.444
		c-0.852-2.839-1.276-5.865-1.276-9.079c0-2.868,0.41-5.707,1.232-8.52c0.821-2.811,2.053-5.321,3.696-7.529
		c1.642-2.208,3.739-3.987,6.292-5.336c2.552-1.348,5.528-2.023,8.932-2.023c3.461,0,6.453,0.676,8.976,2.023
		c2.522,1.349,4.62,3.128,6.292,5.336c1.673,2.208,2.904,4.719,3.696,7.529c0.792,2.812,1.188,5.651,1.188,8.52
		C283.064,91.806,282.638,94.832,281.788,97.671z M250.328,94.92c0.469,2.167,1.217,4.119,2.244,5.857
		c1.025,1.739,2.39,3.165,4.092,4.276c1.701,1.11,3.784,1.666,6.248,1.666s4.546-0.556,6.248-1.666
		c1.701-1.111,3.064-2.537,4.092-4.276c1.026-1.738,1.773-3.69,2.244-5.857c0.469-2.166,0.704-4.275,0.704-6.328
		c0-2.052-0.235-4.16-0.704-6.327c-0.471-2.166-1.218-4.118-2.244-5.857c-1.027-1.738-2.391-3.164-4.092-4.275
		c-1.702-1.111-3.784-1.668-6.248-1.668s-4.547,0.557-6.248,1.668c-1.702,1.111-3.066,2.537-4.092,4.275
		c-1.027,1.739-1.775,3.691-2.244,5.857c-0.471,2.167-0.704,4.275-0.704,6.327C249.624,90.645,249.857,92.754,250.328,94.92z"/>
	<path fill="#B8B8B8" d="M316.327,68.023c0.645-1.892,1.848-2.84,3.607-2.84c1.818,0,3.021,0.948,3.608,2.84l10.824,33.994h0.176
		l10.912-33.994c0.293-0.917,0.704-1.62,1.231-2.108c0.528-0.486,1.29-0.731,2.288-0.731c0.938,0,1.673,0.288,2.2,0.861
		c0.528,0.574,0.792,1.233,0.792,1.979c0,0.402-0.176,1.177-0.527,2.323l-13.376,38.899c-0.471,1.262-1.071,2.037-1.805,2.323
		c-0.734,0.288-1.306,0.431-1.716,0.431c-0.822,0-1.555-0.257-2.2-0.774c-0.646-0.517-1.203-1.55-1.672-3.098l-10.647-33.306h-0.177
		l-11,34.424c-0.352,1.147-0.866,1.895-1.54,2.238c-0.675,0.344-1.335,0.516-1.979,0.516c-0.528,0-1.175-0.215-1.937-0.645
		c-0.763-0.431-1.291-1.134-1.584-2.109l-13.376-38.899c-0.352-1.146-0.527-1.921-0.527-2.323c0-0.745,0.264-1.404,0.792-1.979
		c0.527-0.573,1.261-0.861,2.199-0.861c0.997,0,1.761,0.245,2.288,0.731c0.528,0.488,0.938,1.191,1.232,2.108l10.912,33.994h0.176
		L316.327,68.023z"/>
	<path fill="#B8B8B8" d="M390.158,48.08c0-2.677,1.056-4.016,3.168-4.016s3.168,1.339,3.168,4.016v59.903
		c0,2.679-1.056,4.017-3.168,4.017s-3.168-1.338-3.168-4.017v-2.882h-0.265c-1.407,2.271-3.227,3.989-5.455,5.152
		c-2.23,1.164-4.724,1.746-7.48,1.746c-3.344,0-6.278-0.616-8.8-1.85c-2.523-1.233-4.62-2.912-6.292-5.035s-2.935-4.604-3.784-7.444
		c-0.852-2.839-1.276-5.865-1.276-9.079c0-2.868,0.41-5.707,1.232-8.52c0.821-2.811,2.053-5.321,3.696-7.529
		c1.642-2.208,3.709-3.987,6.204-5.336c2.492-1.348,5.44-2.023,8.844-2.023c2.757,0,5.177,0.512,7.26,1.533
		c2.082,1.023,4.033,2.583,5.852,4.68h0.265V48.08z M364.374,94.92c0.469,2.167,1.217,4.119,2.244,5.857
		c1.025,1.739,2.39,3.165,4.092,4.276c1.701,1.11,3.784,1.666,6.248,1.666s4.532-0.556,6.204-1.666
		c1.672-1.111,3.036-2.537,4.092-4.276c1.056-1.738,1.804-3.69,2.244-5.857c0.44-2.166,0.66-4.275,0.66-6.328
		c0-2.052-0.22-4.16-0.66-6.327c-0.44-2.166-1.188-4.118-2.244-5.857c-1.056-1.738-2.42-3.164-4.092-4.275s-3.74-1.668-6.204-1.668
		c-2.406,0-4.444,0.557-6.116,1.668s-3.036,2.537-4.092,4.275c-1.056,1.739-1.834,3.691-2.332,5.857
		c-0.499,2.167-0.748,4.275-0.748,6.327C363.67,90.645,363.903,92.754,364.374,94.92z"/>
	<path fill="#B8B8B8" d="M418.626,111.296c-2.142-0.469-3.96-1.056-5.456-1.76s-2.655-1.496-3.476-2.376
		c-0.822-0.88-1.232-1.76-1.232-2.641c0-0.82,0.293-1.539,0.88-2.155c0.586-0.616,1.29-0.924,2.112-0.924
		c0.352,0,0.85,0.176,1.496,0.527c0.645,0.353,1.144,0.676,1.496,0.968c0.176,0.177,0.601,0.44,1.275,0.792
		c0.674,0.353,1.496,0.704,2.465,1.057c0.968,0.352,2.037,0.675,3.212,0.968c1.173,0.294,2.316,0.44,3.432,0.44
		c2.229,0,4.224-0.388,5.984-1.166c1.76-0.777,3.27-1.799,4.531-3.066s2.229-2.708,2.904-4.32c0.674-1.613,1.012-3.226,1.012-4.839
		c0-2.477-0.733-4.449-2.199-5.918c-1.468-1.469-3.301-2.706-5.5-3.715c-2.2-1.008-4.592-1.93-7.172-2.766
		c-2.583-0.834-4.973-1.871-7.173-3.108c-2.199-1.238-4.034-2.808-5.5-4.708c-1.467-1.9-2.199-4.407-2.199-7.518
		c0-2.477,0.497-4.679,1.495-6.609c0.997-1.93,2.332-3.556,4.005-4.882c1.672-1.323,3.607-2.346,5.808-3.065
		c2.2-0.721,4.473-1.11,6.82-1.168c1.7,0,3.401,0.221,5.104,0.66c1.701,0.44,3.226,0.998,4.576,1.672
		c1.349,0.676,2.449,1.408,3.3,2.2c0.85,0.792,1.276,1.57,1.276,2.332c0,0.998-0.295,1.804-0.88,2.42
		c-0.588,0.616-1.175,0.924-1.761,0.924c-0.822,0-1.599-0.233-2.332-0.704c-0.733-0.469-1.539-0.968-2.42-1.496
		c-0.88-0.527-1.892-1.025-3.035-1.495c-1.145-0.47-2.567-0.704-4.269-0.704c-1.643,0-3.154,0.26-4.532,0.778
		c-1.379,0.518-2.582,1.224-3.607,2.115c-1.027,0.895-1.819,1.916-2.376,3.068c-0.559,1.152-0.836,2.36-0.836,3.627
		c0,2.247,0.732,4.048,2.199,5.401c1.466,1.353,3.301,2.505,5.5,3.455c2.2,0.951,4.59,1.859,7.173,2.723
		c2.58,0.863,4.972,1.944,7.172,3.239s4.032,2.951,5.5,4.967c1.466,2.016,2.2,4.665,2.2,7.948c0,2.766-0.471,5.344-1.408,7.733
		c-0.939,2.39-2.274,4.463-4.004,6.221c-1.731,1.757-3.828,3.124-6.292,4.103c-2.465,0.979-5.192,1.469-8.185,1.469
		C423.128,112,420.767,111.767,418.626,111.296z"/>
	<path fill="#B8B8B8" d="M489.774,108.054c0,2.632-1.057,3.946-3.168,3.946c-2.112,0-3.168-1.314-3.168-3.946V82.917
		c0-2.516-0.323-4.547-0.969-6.091s-1.467-2.746-2.464-3.604c-0.998-0.858-2.127-1.444-3.388-1.759
		c-1.263-0.313-2.508-0.472-3.74-0.472c-1.291,0-2.567,0.259-3.828,0.772c-1.262,0.515-2.406,1.272-3.432,2.273
		c-1.027,1.001-1.863,2.245-2.508,3.731c-0.646,1.487-0.969,3.203-0.969,5.147v25.137c0,2.632-1.056,3.946-3.168,3.946
		c-2.111,0-3.168-1.318-3.168-3.959V69.143c0-2.639,1.057-3.959,3.168-3.959c2.112,0,3.168,1.32,3.168,3.959v2.237h0.177
		c1.173-1.664,2.757-3.111,4.752-4.345c1.993-1.233,4.487-1.852,7.479-1.852c2.757,0,5.236,0.704,7.437,2.109
		s3.828,3.37,4.884,5.895c1.584-2.639,3.637-4.632,6.16-5.98c2.521-1.348,5.045-2.023,7.567-2.023c2.054,0,4.093,0.346,6.116,1.033
		c2.024,0.688,3.828,1.708,5.412,3.055c1.584,1.35,2.86,3.042,3.828,5.078c0.968,2.038,1.452,4.434,1.452,7.186v26.506
		c0,2.641-1.057,3.959-3.168,3.959c-2.112,0-3.168-1.314-3.168-3.946V82.917c0-2.516-0.323-4.547-0.969-6.091
		s-1.467-2.746-2.464-3.604c-0.998-0.858-2.127-1.444-3.388-1.759c-1.262-0.313-2.508-0.472-3.74-0.472
		c-1.291,0-2.566,0.259-3.828,0.772c-1.262,0.515-2.406,1.272-3.432,2.273c-1.027,1.001-1.863,2.245-2.508,3.731
		c-0.646,1.487-0.968,3.203-0.968,5.147V108.054z"/>
	<path fill="#B8B8B8" d="M559.116,69.143c0-2.639,1.056-3.959,3.168-3.959s3.168,1.32,3.168,3.959v38.898
		c0,2.641-1.056,3.959-3.168,3.959s-3.168-1.318-3.168-3.959v-2.839h-0.265c-1.407,2.238-3.227,3.931-5.455,5.078
		c-2.23,1.146-4.724,1.72-7.48,1.72c-3.344,0-6.278-0.616-8.8-1.85c-2.523-1.233-4.62-2.912-6.292-5.035s-2.935-4.604-3.784-7.444
		c-0.852-2.839-1.276-5.865-1.276-9.079c0-2.868,0.41-5.707,1.232-8.52c0.821-2.811,2.053-5.321,3.696-7.529
		c1.642-2.208,3.709-3.987,6.204-5.336c2.492-1.348,5.44-2.023,8.844-2.023c2.757,0,5.177,0.56,7.26,1.68
		c2.082,1.119,4.033,2.825,5.852,5.119h0.265V69.143z M533.332,94.92c0.469,2.167,1.217,4.119,2.244,5.857
		c1.025,1.739,2.39,3.165,4.092,4.276c1.701,1.11,3.784,1.666,6.248,1.666s4.532-0.556,6.204-1.666
		c1.672-1.111,3.036-2.537,4.092-4.276c1.056-1.738,1.804-3.69,2.244-5.857c0.44-2.166,0.66-4.275,0.66-6.328
		c0-2.052-0.22-4.16-0.66-6.327c-0.44-2.166-1.188-4.118-2.244-5.857c-1.056-1.738-2.42-3.164-4.092-4.275s-3.74-1.668-6.204-1.668
		c-2.406,0-4.444,0.557-6.116,1.668s-3.036,2.537-4.092,4.275c-1.056,1.739-1.834,3.691-2.332,5.857
		c-0.499,2.167-0.748,4.275-0.748,6.327C532.628,90.645,532.861,92.754,533.332,94.92z"/>
	<path fill="#B8B8B8" d="M584.284,108.041c0,2.641-1.056,3.959-3.168,3.959c-2.111,0-3.168-1.318-3.168-3.959V69.143
		c0-2.639,1.057-3.959,3.168-3.959c2.112,0,3.168,1.32,3.168,3.959v4.303h0.177c1.173-2.581,2.684-4.604,4.531-6.066
		c1.849-1.464,3.77-2.195,5.765-2.195c1.524,0,2.609,0.346,3.256,1.033c0.645,0.688,0.968,1.463,0.968,2.323
		c0,0.861-0.338,1.55-1.012,2.065c-0.675,0.518-1.775,0.947-3.3,1.291c-0.88,0.174-1.923,0.518-3.124,1.033
		c-1.203,0.517-2.332,1.305-3.389,2.366c-1.056,1.062-1.966,2.439-2.728,4.132c-0.764,1.692-1.145,3.801-1.145,6.325V108.041z"/>
	<path fill="#B8B8B8" d="M617.986,108.003c0,2.665-1.056,3.997-3.168,3.997c-2.111,0-3.168-1.332-3.168-3.997V70.464h-4.136
		c-1.056,0-1.775-0.308-2.156-0.924c-0.382-0.616-0.571-1.188-0.571-1.716c0-0.528,0.189-1.101,0.571-1.716
		c0.381-0.616,1.101-0.925,2.156-0.925h4.136V54.888c0-2.757,1.057-4.136,3.168-4.136c2.112,0,3.168,1.379,3.168,4.136v10.296h4.137
		c1.056,0,1.773,0.309,2.155,0.925c0.381,0.615,0.572,1.188,0.572,1.716c0,0.527-0.191,1.1-0.572,1.716
		c-0.382,0.616-1.1,0.924-2.155,0.924h-4.137V108.003z"/>
</g>
<g>
	<defs>
		<circle id="SVGID_1_" cx="74.96" cy="83.517" r="67.184"/>
	</defs>
	<clipPath id="SVGID_2_">
		<use xlink:href="#SVGID_1_"  overflow="visible"/>
	</clipPath>
	<g clip-path="url(#SVGID_2_)">
		<circle cx="74.96" cy="83.517" r="67.184"/>
		<g>
			<path d="M97.582,75.581c-1.77,0-3.205-1.435-3.205-3.205c0-0.344-0.97-1.418-1.491-1.996c-1.114-1.233-2.558-2.834-3.242-5.013
				c-1.23-0.976-2.397-2.613-2.51-5.087c-0.08-1.774,0.218-3.055,0.653-3.974c-0.418-3.107-0.859-9.824,2.348-13.687
				c1.517-1.827,3.629-2.792,6.108-2.792c0.21,0,0.424,0.007,0.641,0.021c1.336-0.918,3.584-2.117,6.211-2.117
				c4.258,0,7.782,1.488,10.191,4.305c3.914,4.575,3.865,11.255,3.62,14.18c0.458,0.925,0.78,2.229,0.698,4.062
				c-0.116,2.52-1.434,4.139-2.896,5.031c-0.643,1.771-1.771,3.225-2.728,4.455c-0.684,0.881-1.62,2.086-1.62,2.612
				c0,1.771-1.435,3.205-3.205,3.205H97.582z"/>
			<path d="M103.095,40.937c13.018,0,10.486,16.153,10.486,16.153s0.937,0.468,0.821,3.044c-0.118,2.576-2.41,2.827-2.41,2.827
				c-0.391,3.65-4.837,6.187-4.837,9.415h-9.574c0-3.229-4.709-5.062-5.1-9.041c0,0-2.029-0.625-2.147-3.201
				c-0.116-2.576,0.82-3.044,0.82-3.044s-2.63-14.057,5.087-14.057c0.476,0,0.989,0.053,1.546,0.166
				C97.789,43.199,100.223,40.937,103.095,40.937 M103.095,34.526c-2.9,0-5.384,1.059-7.124,2.1
				c-3.304,0.072-6.245,1.467-8.304,3.946c-2.27,2.734-3.398,6.688-3.354,11.752c0.012,1.312,0.1,2.522,0.202,3.505
				c-0.423,1.216-0.669,2.726-0.585,4.594c0.133,2.906,1.344,5.204,2.966,6.795c0.944,2.358,2.48,4.061,3.608,5.311
				c0.237,0.263,0.534,0.591,0.742,0.842c0.478,3.068,3.131,5.416,6.333,5.416h9.574c3.312,0,6.037-2.511,6.375-5.732
				c0.229-0.354,0.67-0.922,0.981-1.323c0.896-1.153,1.995-2.568,2.801-4.324c1.926-1.525,3.352-3.896,3.493-6.979
				c0.088-1.969-0.19-3.54-0.654-4.788c0.192-3.697-0.126-10.656-4.43-15.688C113.604,37.477,109.694,34.526,103.095,34.526
				L103.095,34.526z"/>
			<path fill="#B0B0B0" d="M103.095,40.937c13.018,0,10.486,16.153,10.486,16.153s0.937,0.468,0.821,3.044
				c-0.118,2.576-2.41,2.827-2.41,2.827c-0.391,3.65-4.837,6.187-4.837,9.415h-9.574c0-3.229-4.709-5.062-5.1-9.041
				c0,0-2.029-0.625-2.147-3.201c-0.116-2.576,0.82-3.044,0.82-3.044s-2.63-14.057,5.087-14.057c0.476,0,0.989,0.053,1.546,0.166
				C97.789,43.199,100.223,40.937,103.095,40.937 M103.095,38.052c-2.61,0-4.837,1.224-6.123,2.125
				c-0.248-0.02-0.491-0.028-0.729-0.028c-2.381,0-4.408,0.925-5.862,2.676c-1.723,2.076-2.578,5.262-2.541,9.469
				c0.014,1.614,0.159,3.068,0.286,4.049c-0.44,0.881-0.753,2.139-0.672,3.922c0.11,2.414,1.267,3.991,2.463,4.912
				c0.638,2.143,2.039,3.695,3.207,4.99c0.701,0.776,1.574,1.743,1.574,2.21c0,1.593,1.292,2.885,2.885,2.885h9.574
				c1.593,0,2.885-1.292,2.885-2.885c0-0.636,0.896-1.79,1.688-2.809c0.959-1.235,2.096-2.698,2.716-4.473
				c1.423-0.832,2.728-2.384,2.84-4.829c0.083-1.836-0.251-3.114-0.712-3.999c0.227-2.794,0.304-9.54-3.53-14.022
				C110.663,39.463,107.316,38.052,103.095,38.052L103.095,38.052z"/>
		</g>
		<g>
			<path d="M71.587,65.104c-2.269,0-5.491-0.242-7.263-2.337c-0.923-1.091-1.295-2.5-1.048-3.969
				c0.869-5.165,0.898-14.763,0.899-14.859c0-8.861,5.011-12.009,9.303-12.009c1.054,0,2.12,0.174,3.185,0.519
				c1.163-0.327,2.31-0.493,3.422-0.493c7.25,0,9.823,6.407,9.823,11.894v15.763c0,1.47-0.999,2.75-2.424,3.108
				C87.096,62.817,77.924,65.104,71.587,65.104z"/>
			<path d="M73.478,35.135c1.005,0,2.059,0.245,3.101,0.711c1.195-0.447,2.385-0.686,3.506-0.686c3.675,0,6.618,2.557,6.618,8.688
				v15.763c0,0-9.102,2.287-15.115,2.287c-3.166,0-5.476-0.634-5.15-2.569c0.923-5.485,0.943-15.384,0.943-15.384
				C67.38,37.801,70.159,35.135,73.478,35.135 M73.478,28.725L73.478,28.725c-6.226,0-12.508,4.707-12.508,15.221
				c-0.006,2.596-0.171,10.259-0.854,14.32c-0.406,2.415,0.22,4.748,1.762,6.571c2.633,3.112,6.803,3.473,9.71,3.473
				c6.615,0,15.667-2.228,16.678-2.481c2.85-0.716,4.848-3.278,4.848-6.217V43.849c0-4.466-1.163-8.098-3.457-10.796
				c-2.359-2.774-5.758-4.303-9.571-4.303c-1.108,0-2.234,0.128-3.369,0.381C75.639,28.86,74.556,28.725,73.478,28.725
				L73.478,28.725z"/>
			<path fill="#B0B0B0" d="M73.478,35.135c1.005,0,2.059,0.245,3.101,0.711c1.195-0.447,2.385-0.686,3.506-0.686
				c3.675,0,6.618,2.557,6.618,8.688v15.763c0,0-9.102,2.287-15.115,2.287c-3.166,0-5.476-0.634-5.15-2.569
				c0.923-5.485,0.943-15.384,0.943-15.384C67.38,37.801,70.159,35.135,73.478,35.135 M73.478,31.93L73.478,31.93
				c-4.292,0-9.303,3.147-9.303,12.016c0,0.09-0.031,9.693-0.899,14.852c-0.247,1.47,0.125,2.879,1.048,3.97
				c1.772,2.095,4.994,2.337,7.263,2.337c6.337,0,15.509-2.286,15.896-2.384c1.425-0.358,2.424-1.639,2.424-3.108V43.849
				c0-3.684-0.906-6.617-2.694-8.72c-1.74-2.047-4.272-3.174-7.129-3.174c-1.113,0-2.259,0.166-3.422,0.493
				C75.598,32.104,74.531,31.93,73.478,31.93L73.478,31.93z"/>
		</g>
		<g>
			<path d="M87.438,78.473c-1.77,0-3.205-1.435-3.205-3.205c-0.064-0.308-0.859-1.188-1.333-1.714
				c-1.043-1.155-2.392-2.649-3.049-4.691c-1.168-0.947-2.261-2.514-2.368-4.859c-0.074-1.654,0.198-2.864,0.603-3.746
				c-0.392-2.954-0.776-9.224,2.243-12.861c1.456-1.754,3.483-2.681,5.861-2.681c0.177,0,0.356,0.005,0.538,0.016
				c1.278-0.868,3.388-1.972,5.851-1.972c5.096,0,8.067,2.223,9.663,4.088c3.672,4.292,3.657,10.529,3.43,13.317
				c0.429,0.888,0.724,2.125,0.647,3.837c-0.11,2.396-1.347,3.952-2.736,4.824c-0.613,1.648-1.661,2.997-2.551,4.143
				c-0.547,0.704-1.464,1.885-1.464,2.3c0,1.771-1.435,3.205-3.205,3.205H87.438z"/>
			<path d="M92.578,45.964c12.132,0,9.772,15.058,9.772,15.058s0.873,0.436,0.765,2.836c-0.11,2.401-2.246,2.637-2.246,2.637
				c-0.365,3.401-4.509,5.765-4.509,8.773h-8.923c0-3.009-4.388-4.717-4.753-8.427c0,0-1.892-0.582-2.001-2.983
				c-0.107-2.4,0.765-2.836,0.765-2.836s-2.453-13.102,4.74-13.102c0.443,0,0.923,0.05,1.442,0.155
				C87.632,48.075,89.9,45.964,92.578,45.964 M92.578,39.554c-2.743,0-5.095,0.979-6.764,1.962
				c-3.163,0.099-5.975,1.451-7.952,3.833c-2.183,2.63-3.269,6.41-3.226,11.235c0.011,1.23,0.094,2.366,0.189,3.292
				c-0.571,1.777-0.581,3.489-0.546,4.268c0.127,2.801,1.284,5.023,2.842,6.575c0.929,2.246,2.399,3.875,3.398,4.982
				c0.191,0.212,0.425,0.471,0.604,0.682c0.528,3.009,3.154,5.295,6.313,5.295h8.923c3.274,0,5.976-2.455,6.363-5.625
				c0.212-0.313,0.576-0.782,0.838-1.119c0.836-1.076,1.857-2.391,2.623-4.024c1.843-1.495,3.199-3.79,3.335-6.759
				c0.036-0.81,0.024-2.622-0.61-4.47c0.18-3.517-0.132-10.123-4.233-14.918C102.643,42.387,98.894,39.554,92.578,39.554
				L92.578,39.554z"/>
			<path fill="#B0B0B0" d="M92.578,45.964c12.132,0,9.772,15.058,9.772,15.058s0.873,0.436,0.765,2.836
				c-0.11,2.401-2.246,2.637-2.246,2.637c-0.365,3.401-4.509,5.765-4.509,8.773h-8.923c0-3.009-4.388-4.717-4.753-8.427
				c0,0-1.892-0.582-2.001-2.983c-0.107-2.4,0.765-2.836,0.765-2.836s-2.453-13.102,4.74-13.102c0.443,0,0.923,0.05,1.442,0.155
				C87.632,48.075,89.9,45.964,92.578,45.964 M92.578,43.079c-2.444,0-4.533,1.126-5.763,1.978
				c-0.212-0.014-0.421-0.021-0.626-0.021c-2.279,0-4.221,0.887-5.614,2.565c-2.974,3.582-2.55,9.839-2.16,12.707
				c-0.406,0.845-0.687,2.028-0.613,3.679c0.104,2.289,1.189,3.798,2.326,4.689c0.628,2.025,1.973,3.516,3.009,4.663
				c0.563,0.625,1.416,1.569,1.416,1.929c0,1.593,1.292,2.885,2.885,2.885h8.923c1.593,0,2.885-1.292,2.885-2.885
				c0-0.525,0.849-1.618,1.532-2.497c0.893-1.148,1.947-2.506,2.54-4.157c1.35-0.812,2.574-2.301,2.68-4.624
				c0.077-1.706-0.226-2.913-0.653-3.763c0.23-2.695,0.29-8.92-3.348-13.172C99.772,44.454,96.515,43.079,92.578,43.079
				L92.578,43.079z"/>
		</g>
		<g>
			<path d="M41.749,65.207c-1.183,0-2.27-0.651-2.827-1.695l-3.429-6.421c-0.16-0.299-0.271-0.622-0.33-0.956
				c-0.14-0.795-1.277-7.912,1.747-12.813c2.492-4.039,8.05-7.086,12.929-7.086c2.127,0,4.117,0.562,5.782,1.627
				c2.566,1.104,6.463,4.118,6.463,9.234c0,3.146-1.251,8.869-1.394,9.511c-0.5,2.444-2.73,6.285-3.172,7.03
				c-0.577,0.973-1.625,1.569-2.756,1.569H41.749z"/>
			<path d="M49.838,39.44c1.525,0,3.002,0.38,4.273,1.269c0,0,4.767,1.797,4.767,6.388c0,2.886-1.318,8.815-1.318,8.815
				c-0.429,2.095-2.8,6.09-2.8,6.09H41.749l-3.429-6.421c0,0-1.153-6.571,1.318-10.577C41.431,42.097,45.803,39.44,49.838,39.44
				 M49.838,33.03c-5.996,0-12.58,3.62-15.657,8.608c-3.569,5.786-2.438,13.553-2.176,15.051c0.117,0.668,0.34,1.312,0.659,1.911
				l3.429,6.421c1.115,2.087,3.289,3.391,5.655,3.391h13.012c2.263,0,4.358-1.193,5.513-3.139c0.872-1.47,2.953-5.174,3.554-8.011
				c0.265-1.195,1.461-6.789,1.461-10.166c0-6.6-4.809-10.53-8.15-12.065C55.002,33.72,52.495,33.03,49.838,33.03L49.838,33.03z"/>
			<path fill="#B0B0B0" d="M49.838,39.44c1.525,0,3.002,0.38,4.273,1.269c0,0,4.767,1.797,4.767,6.388
				c0,2.886-1.318,8.815-1.318,8.815c-0.429,2.095-2.8,6.09-2.8,6.09H41.749l-3.429-6.421c0,0-1.153-6.571,1.318-10.577
				C41.431,42.097,45.803,39.44,49.838,39.44 M49.838,36.235c-4.879,0-10.437,3.047-12.929,7.086
				c-3.023,4.901-1.886,12.019-1.747,12.813c0.059,0.334,0.17,0.657,0.33,0.956l3.429,6.421c0.557,1.044,1.644,1.695,2.827,1.695
				h13.012c1.131,0,2.179-0.597,2.756-1.569c0.44-0.742,2.654-4.556,3.177-7.053c0.165-0.743,1.389-6.376,1.389-9.488
				c0-5.116-3.897-8.13-6.463-9.234C53.956,36.797,51.966,36.235,49.838,36.235L49.838,36.235z"/>
		</g>
		<g>
			<path d="M49.513,76.977c-1.708,0-3.126-1.347-3.2-3.067l-0.641-14.903c-0.017-0.394,0.039-0.787,0.165-1.16
				c0.726-2.158,4.734-12.922,12.324-12.922c1.696,0,3.347,0.548,4.926,1.633c0.49-0.082,1.047-0.139,1.646-0.139
				c1.957,0,8.341,0.771,8.341,10.688v15.865c0,1.721-1.359,3.135-3.079,3.203C69.994,76.174,49.555,76.977,49.513,76.977z"/>
			<path d="M58.16,48.13c1.292,0,2.689,0.557,4.176,1.924c0,0,1.066-0.431,2.396-0.431c2.205,0,5.136,1.185,5.136,7.482
				c0,10.097,0,15.865,0,15.865l-20.353,0.801l-0.641-14.903C48.874,58.868,52.488,48.13,58.16,48.13 M58.16,41.719L58.16,41.719
				c-9.782,0-14.513,12.582-15.361,15.104c-0.251,0.746-0.363,1.533-0.329,2.32l0.641,14.903c0.148,3.442,2.985,6.135,6.4,6.135
				c0.085,0,0.17-0.001,0.256-0.005l20.353-0.801c3.44-0.135,6.158-2.963,6.158-6.405V57.105c0-10.255-6.22-13.894-11.546-13.894
				c-0.315,0-0.622,0.013-0.917,0.033C61.628,42.028,59.627,41.719,58.16,41.719L58.16,41.719z"/>
			<path fill="#B0B0B0" d="M58.16,48.13c1.292,0,2.689,0.557,4.176,1.924c0,0,1.066-0.431,2.396-0.431
				c2.205,0,5.136,1.185,5.136,7.482c0,10.097,0,15.865,0,15.865l-20.353,0.801l-0.641-14.903
				C48.874,58.868,52.488,48.13,58.16,48.13 M58.16,44.924L58.16,44.924c-7.59,0.001-11.598,10.764-12.324,12.922
				c-0.126,0.373-0.182,0.767-0.165,1.16l0.641,14.903c0.074,1.721,1.493,3.067,3.2,3.067c0.042,0,0.085-0.001,0.128-0.002
				l20.353-0.801c1.72-0.068,3.079-1.482,3.079-3.203V57.105c0-9.917-6.384-10.688-8.341-10.688c-0.599,0-1.156,0.057-1.646,0.139
				C61.507,45.472,59.856,44.924,58.16,44.924L58.16,44.924z"/>
		</g>
		<g>
			<path d="M47.541,95.758c-0.254,0-0.511-0.03-0.768-0.094l-12.513-3.082c-1.308-0.322-2.274-1.428-2.42-2.767l-1.151-10.599
				c-0.288-1.717-1.405-9.199,0.205-13.178c1.839-4.538,6.273-7.546,11.298-7.662c0.144-0.004,0.291-0.005,0.44-0.005
				c7.956,0,13.209,4.278,13.385,10.899c0.188,7.072-4.859,22.546-5.435,24.287C50.14,94.896,48.893,95.758,47.541,95.758z"/>
			<path d="M42.632,61.577c3.728,0,10.009,1.277,10.181,7.779c0.179,6.717-5.274,23.195-5.274,23.195L35.026,89.47l-1.162-10.693
				c0,0-1.385-8.112,0-11.534c1.386-3.421,4.738-5.576,8.401-5.661C42.384,61.578,42.507,61.577,42.632,61.577 M42.632,55.167
				c-0.175,0-0.347,0.002-0.513,0.006c-6.306,0.146-11.877,3.938-14.196,9.663c-1.828,4.514-0.927,11.721-0.411,14.82l1.141,10.506
				c0.291,2.678,2.225,4.888,4.84,5.532l12.513,3.082c0.514,0.126,1.029,0.187,1.537,0.187c2.705,0,5.197-1.723,6.083-4.397
				c0.969-2.93,5.794-17.92,5.596-25.38C58.999,60.801,52.332,55.167,42.632,55.167L42.632,55.167z"/>
			<path fill="#14FF03" d="M42.632,61.577c3.728,0,10.009,1.277,10.181,7.779c0.179,6.717-5.274,23.195-5.274,23.195L35.026,89.47
				l-1.162-10.693c0,0-1.385-8.112,0-11.534c1.386-3.421,4.738-5.576,8.401-5.661C42.384,61.578,42.507,61.577,42.632,61.577
				 M42.632,58.372L42.632,58.372c-0.15,0-0.297,0.001-0.439,0.005c-5.026,0.116-9.46,3.124-11.299,7.662
				c-1.611,3.979-0.493,11.462-0.206,13.178l1.151,10.599c0.146,1.339,1.112,2.444,2.42,2.767l12.513,3.082
				c0.257,0.063,0.515,0.094,0.768,0.094c1.353,0,2.599-0.861,3.042-2.199c0.576-1.741,5.623-17.215,5.435-24.287
				C55.841,62.65,50.587,58.372,42.632,58.372L42.632,58.372z"/>
		</g>
		
			<rect x="81.174" y="68.832" stroke="#000000" stroke-width="6.4103" stroke-linejoin="round" stroke-miterlimit="10" width="14.691" height="10.16"/>
		<g>
			<path d="M67.581,91.65c-1.269,0-2.443-0.669-3.091-1.76c-0.474-0.799-2.867-4.922-3.42-7.614c-0.141-0.63-1.48-6.757-1.48-10.136
				c0-5.194,4.02-8.037,7.084-9.192c1.75-2.191,4.977-3.491,8.917-3.491c4.625,0,8.495,1.798,10.351,4.808
				c3.261,5.289,2.039,12.948,1.888,13.804c-0.018,0.101-0.04,0.201-0.066,0.301l-2.815,10.609
				c-0.418,1.575-1.844,2.672-3.474,2.672H67.581z"/>
			<path d="M75.591,63.051c2.929,0,5.987,0.985,7.292,3.101c2.639,4.279,1.408,11.296,1.408,11.296l-2.815,10.609H67.581
				c0,0-2.531-4.266-2.991-6.503c0,0-1.407-6.331-1.407-9.413c0-4.902,5.844-6.157,5.844-6.157
				C69.738,64.081,72.597,63.052,75.591,63.051 M75.592,55.863H75.59c-4.605,0.001-8.519,1.486-11.019,4.043
				c-4.528,1.965-8.576,6.177-8.576,12.234c0,3.641,1.284,9.643,1.569,10.929c0.653,3.078,2.896,7.072,3.835,8.655
				c1.295,2.182,3.644,3.52,6.181,3.52h13.895c3.26,0,6.111-2.193,6.947-5.345l2.815-10.609c0.053-0.198,0.097-0.398,0.132-0.601
				c0.284-1.621,1.506-10.025-2.369-16.311C86.485,58.299,81.472,55.863,75.592,55.863L75.592,55.863z"/>
			<path fill="#1A3CE6" d="M75.591,63.051c2.929,0,5.987,0.985,7.292,3.101c2.639,4.279,1.408,11.296,1.408,11.296l-2.815,10.609
				H67.581c0,0-2.531-4.266-2.991-6.503c0,0-1.407-6.331-1.407-9.413c0-4.902,5.844-6.157,5.844-6.157
				C69.738,64.081,72.597,63.052,75.591,63.051 M75.592,59.629c0,0-0.001,0-0.001,0c-3.917,0-7.116,1.295-8.823,3.477
				c-0.716,0.267-1.604,0.662-2.495,1.228c-2.91,1.845-4.512,4.618-4.512,7.808c0,3.326,1.309,9.343,1.484,10.133
				c0.559,2.666,2.924,6.738,3.394,7.53c0.617,1.039,1.735,1.676,2.943,1.676h13.895c1.552,0,2.91-1.045,3.308-2.545l2.815-10.609
				c0.025-0.095,0.046-0.19,0.063-0.286c0.149-0.85,1.362-8.449-1.866-13.684C83.971,61.396,80.156,59.629,75.592,59.629
				L75.592,59.629z"/>
		</g>
		<g>
			<path fill="#811DE6" d="M37.284,78.991c1.06,0,2.144,0.267,3.166,0.77c1.153-0.476,2.301-0.729,3.384-0.729
				c3.546,0,6.386,2.719,6.386,9.239c0,8.511,3.468,13.868,3.468,13.868c-0.946,1.574-8.826,1.891-8.826,1.891
				s-0.63,3.466,6.619,5.357c7.25,1.89,7.25,10.835,7.25,10.835s-6.944,1.655-18.281,1.655s-18.279-1.655-18.279-1.655
				s0-8.945,7.249-10.835c7.248-1.892,6.619-5.357,6.619-5.357s-7.88-0.316-8.826-1.891c0,0,3.468-5.357,3.468-13.868
				C30.68,81.771,33.855,78.991,37.284,78.991 M37.284,76.107c-6.555,0-9.489,6.109-9.489,12.164c0,7.465-2.982,12.266-3.013,12.313
				c-0.583,0.921-0.604,2.105-0.043,3.04c0.346,0.575,1.106,1.842,5.076,2.641c-0.342,0.113-0.716,0.225-1.125,0.331
				c-3.919,1.021-6.797,3.762-8.323,7.925c-1.052,2.87-1.083,5.42-1.083,5.701c0,1.335,0.917,2.496,2.216,2.806
				c0.297,0.071,7.405,1.734,18.948,1.734s18.653-1.663,18.95-1.734c1.299-0.31,2.216-1.47,2.216-2.806
				c0-0.281-0.03-2.831-1.083-5.701c-1.525-4.163-4.404-6.903-8.324-7.925c-0.408-0.107-0.782-0.218-1.124-0.331
				c3.97-0.799,4.73-2.064,5.076-2.641c0.567-0.943,0.547-2.129-0.051-3.053c-0.022-0.035-3.005-4.836-3.005-12.301
				c0-8.939-4.789-12.124-9.271-12.124c-1.078,0-2.187,0.175-3.309,0.522C39.461,76.3,38.36,76.107,37.284,76.107L37.284,76.107z"/>
		</g>
		<g>
			<path d="M40.858,126.225c-11.271,0-18.265-2.27-18.557-2.366c-1.312-0.434-2.199-1.66-2.199-3.043
				c0-0.278,0.03-2.798,1.066-5.624c1.45-3.957,4.137-6.622,7.788-7.738c-2.614-0.781-3.223-1.795-3.556-2.35
				c-0.63-1.049-0.608-2.364,0.057-3.392c0.018-0.029,2.815-4.549,2.815-11.573c0-8.369,4.794-12.115,9.546-12.115
				c1.037,0,2.096,0.178,3.12,0.52c1.073-0.318,2.134-0.479,3.168-0.479c4.514,0,9.337,3.172,9.337,12.075
				c0,7.024,2.796,11.544,2.825,11.589c0.645,1.023,0.669,2.338,0.047,3.375c-0.333,0.554-0.941,1.568-3.556,2.351
				c3.651,1.115,6.338,3.781,7.789,7.738c1.036,2.826,1.065,5.346,1.065,5.624c0,1.383-0.886,2.609-2.199,3.043
				C59.123,123.955,52.129,126.225,40.858,126.225z"/>
			<path d="M37.818,81.229c1.018,0,2.059,0.256,3.04,0.739c1.107-0.456,2.209-0.699,3.249-0.699c3.405,0,6.132,2.609,6.132,8.87
				c0,8.171,3.329,13.314,3.329,13.314c-0.907,1.512-8.474,1.816-8.474,1.816s-0.604,3.327,6.355,5.143
				c6.96,1.815,6.96,10.403,6.96,10.403s-6.666,2.204-17.551,2.204c-10.884,0-17.551-2.204-17.551-2.204s0-8.588,6.96-10.403
				c6.958-1.815,6.354-5.143,6.354-5.143s-7.566-0.305-8.474-1.816c0,0,3.329-5.144,3.329-13.314
				C31.477,83.897,34.526,81.229,37.818,81.229 M37.818,74.818c-3.651,0-7.071,1.636-9.383,4.487
				c-2.235,2.755-3.368,6.399-3.368,10.833c0,6.008-2.277,9.796-2.3,9.831c-1.33,2.055-1.374,4.687-0.114,6.784
				c0.082,0.136,0.167,0.268,0.255,0.395c-2.083,1.744-3.707,4.095-4.75,6.94c-1.201,3.276-1.261,6.178-1.261,6.727
				c0,2.765,1.772,5.219,4.398,6.086c0.312,0.104,7.782,2.528,19.563,2.528c11.782,0,19.251-2.425,19.563-2.528
				c2.625-0.867,4.398-3.321,4.398-6.086c0-0.549-0.061-3.45-1.261-6.727c-1.043-2.846-2.666-5.196-4.75-6.94
				c0.089-0.129,0.175-0.261,0.256-0.396c1.282-2.136,1.298-4.686-0.091-6.747c-0.225-0.388-2.324-4.163-2.324-9.866
				c0-4.413-1.051-8.013-3.125-10.699c-2.28-2.954-5.625-4.581-9.417-4.581c-1.032,0-2.076,0.12-3.125,0.36
				C39.936,74.954,38.871,74.818,37.818,74.818L37.818,74.818z"/>
			<path fill="#811DE6" d="M37.818,81.229c1.018,0,2.059,0.256,3.04,0.739c1.107-0.456,2.209-0.699,3.249-0.699
				c3.405,0,6.132,2.609,6.132,8.87c0,8.171,3.329,13.314,3.329,13.314c-0.907,1.512-8.474,1.816-8.474,1.816
				s-0.604,3.327,6.355,5.143c6.96,1.815,6.96,10.403,6.96,10.403s-6.666,2.204-17.551,2.204c-10.884,0-17.551-2.204-17.551-2.204
				s0-8.588,6.96-10.403c6.958-1.815,6.354-5.143,6.354-5.143s-7.566-0.305-8.474-1.816c0,0,3.329-5.144,3.329-13.314
				C31.477,83.897,34.526,81.229,37.818,81.229 M37.818,78.023c-4.751,0-9.546,3.746-9.546,12.115
				c0,7.024-2.797,11.544-2.825,11.589c-0.645,1.023-0.669,2.339-0.046,3.376c0.333,0.555,0.942,1.568,3.556,2.35
				c-3.651,1.116-6.338,3.781-7.788,7.738c-1.036,2.826-1.066,5.346-1.066,5.624c0,1.383,0.886,2.609,2.199,3.043
				c0.292,0.097,7.286,2.366,18.557,2.366c11.271,0,18.265-2.27,18.557-2.366c1.312-0.434,2.199-1.66,2.199-3.043
				c0-0.278-0.03-2.798-1.065-5.624c-1.451-3.957-4.137-6.622-7.789-7.738c2.615-0.782,3.223-1.797,3.556-2.351
				c0.629-1.049,0.607-2.364-0.057-3.391c-0.018-0.029-2.814-4.549-2.814-11.573c0-8.903-4.823-12.075-9.337-12.075
				c-1.034,0-2.096,0.16-3.168,0.479C39.914,78.201,38.855,78.023,37.818,78.023L37.818,78.023z"/>
		</g>
		<g>
			<path d="M100.286,89.97c-2.269,0-5.491-0.242-7.263-2.337c-0.923-1.091-1.295-2.501-1.048-3.969
				c0.868-5.159,0.898-14.764,0.898-14.86c0-8.861,5.012-12.008,9.303-12.008c1.054,0,2.121,0.174,3.185,0.519
				c1.163-0.327,2.31-0.493,3.422-0.493c7.25,0,9.822,6.407,9.822,11.894v15.763c0,1.47-0.999,2.75-2.424,3.108
				C115.794,87.684,106.622,89.97,100.286,89.97z"/>
			<path d="M102.177,60.001c1.005,0,2.06,0.245,3.102,0.711c1.195-0.447,2.384-0.685,3.505-0.685c3.675,0,6.617,2.556,6.617,8.688
				v15.763c0,0-9.102,2.287-15.115,2.287c-3.166,0-5.476-0.634-5.15-2.569c0.923-5.485,0.943-15.385,0.943-15.385
				C96.079,62.667,98.858,60.001,102.177,60.001 M102.177,53.591L102.177,53.591c-6.226,0-12.508,4.706-12.508,15.22
				c-0.006,2.597-0.171,10.26-0.854,14.321c-0.406,2.414,0.219,4.747,1.762,6.57c2.632,3.112,6.802,3.473,9.709,3.473
				c6.615,0,15.667-2.227,16.677-2.48c2.85-0.716,4.848-3.278,4.848-6.217V68.715c0-4.465-1.163-8.098-3.457-10.796
				c-2.359-2.774-5.757-4.303-9.57-4.303c-1.108,0-2.234,0.128-3.369,0.381C104.338,53.727,103.256,53.591,102.177,53.591
				L102.177,53.591z"/>
			<path fill="#FF0050" d="M102.177,60.001c1.005,0,2.06,0.245,3.102,0.711c1.195-0.447,2.384-0.685,3.505-0.685
				c3.675,0,6.617,2.556,6.617,8.688v15.763c0,0-9.102,2.287-15.115,2.287c-3.166,0-5.476-0.634-5.15-2.569
				c0.923-5.485,0.943-15.385,0.943-15.385C96.079,62.667,98.858,60.001,102.177,60.001 M102.177,56.796L102.177,56.796
				c-4.292,0-9.303,3.146-9.303,12.015c0,0.09-0.031,9.694-0.898,14.853c-0.247,1.469,0.125,2.879,1.048,3.97
				c1.772,2.095,4.994,2.337,7.263,2.337c6.336,0,15.508-2.286,15.896-2.384c1.425-0.358,2.424-1.639,2.424-3.108V68.715
				c0-3.684-0.906-6.617-2.693-8.72c-1.74-2.046-4.271-3.174-7.128-3.174c-1.112,0-2.259,0.166-3.422,0.493
				C104.297,56.97,103.23,56.796,102.177,56.796L102.177,56.796z"/>
		</g>
		<g>
			<path d="M107.537,126.225c-11.245,0-18.225-2.303-18.517-2.4c-1.305-0.438-2.184-1.661-2.184-3.038
				c0-0.277,0.03-2.79,1.063-5.609c1.512-4.126,4.372-6.845,8.271-7.86c2.989-0.78,3.777-1.716,3.939-1.965c0-0.021,0-0.042,0-0.062
				c-0.031-0.375-0.856-1.438-1.35-2.073c-0.837-1.078-1.821-2.345-2.412-3.894c-1.419-0.913-2.526-2.516-2.626-4.686
				c-0.071-1.581,0.188-2.748,0.576-3.603c-0.245-2.344-0.271-6.979,2.593-10.504c1.505-1.853,4.411-4.062,9.703-4.062
				c2.186,0,4.105,0.712,5.27,1.269c0.315-0.03,0.625-0.045,0.926-0.045c2.38,0,4.396,0.911,5.828,2.635
				c2.629,3.163,2.46,8.174,2.165,10.709c0.386,0.854,0.645,2.019,0.574,3.597c-0.104,2.252-1.143,3.767-2.265,4.692
				c-0.637,1.939-1.916,3.357-2.907,4.455c-0.453,0.502-1.136,1.259-1.224,1.563c0.152,0.237,0.925,1.185,3.945,1.973
				c3.897,1.016,6.758,3.734,8.271,7.86c1.033,2.819,1.063,5.332,1.063,5.609c0,1.377-0.879,2.6-2.184,3.038
				C125.763,123.922,118.782,126.225,107.537,126.225z"/>
			<path d="M106.592,79.674c2.535,0,4.687,1.387,4.687,1.387c0.547-0.111,1.048-0.163,1.509-0.163c6.67,0,4.641,10.907,4.641,10.907
				s0.826,0.413,0.724,2.685c-0.104,2.272-1.894,2.823-1.894,2.823c-0.346,3.511-4.499,5.128-4.499,7.977
				c0,0-0.603,3.317,6.335,5.129c6.938,1.808,6.938,10.368,6.938,10.368s-6.646,2.233-17.496,2.233s-17.496-2.233-17.496-2.233
				s0-8.561,6.937-10.368c6.939-1.812,6.335-5.129,6.335-5.129c0-2.849-3.921-5.085-4.266-8.305c0,0-2.021-0.223-2.126-2.495
				c-0.102-2.271,0.724-2.685,0.724-2.685S95.11,79.674,106.592,79.674 M106.592,73.264c-6.553,0-10.247,2.853-12.191,5.245
				c-3.273,4.029-3.548,9.098-3.35,12.104c-0.557,1.737-0.568,3.403-0.534,4.162c0.134,2.896,1.445,5.141,3.234,6.613
				c0.514,1.077,1.135,2.008,1.717,2.798c-0.036,0.01-0.072,0.02-0.109,0.029c-4.887,1.273-8.606,4.774-10.47,9.858
				c-1.198,3.269-1.258,6.164-1.258,6.712c0,2.753,1.758,5.199,4.368,6.076c0.312,0.105,7.774,2.567,19.538,2.567
				s19.226-2.462,19.538-2.567c2.61-0.877,4.368-3.322,4.368-6.076c0-0.548-0.061-3.443-1.259-6.712
				c-1.831-4.996-5.454-8.463-10.22-9.791c0.664-0.855,1.339-1.887,1.853-3.109c1.503-1.52,2.614-3.68,2.739-6.39
				c0.034-0.754,0.024-2.39-0.513-4.104c0.297-3.276,0.174-8.627-2.963-12.4c-2.032-2.445-4.977-3.792-8.292-3.792
				c-0.111,0-0.224,0.001-0.336,0.004C110.973,73.876,108.917,73.264,106.592,73.264L106.592,73.264z"/>
			<path fill="#FFAB03" d="M106.592,79.674c2.535,0,4.687,1.387,4.687,1.387c0.547-0.111,1.048-0.163,1.509-0.163
				c6.67,0,4.641,10.907,4.641,10.907s0.826,0.413,0.724,2.685c-0.104,2.272-1.894,2.823-1.894,2.823
				c-0.346,3.511-4.499,5.128-4.499,7.977c0,0-0.603,3.317,6.335,5.129c6.938,1.808,6.938,10.368,6.938,10.368
				s-6.646,2.233-17.496,2.233s-17.496-2.233-17.496-2.233s0-8.561,6.937-10.368c6.939-1.812,6.335-5.129,6.335-5.129
				c0-2.849-3.921-5.085-4.266-8.305c0,0-2.021-0.223-2.126-2.495c-0.102-2.271,0.724-2.685,0.724-2.685
				S95.11,79.674,106.592,79.674 M106.592,76.469c-5.292,0-8.198,2.209-9.703,4.062c-2.864,3.524-2.838,8.159-2.594,10.503
				c-0.387,0.854-0.646,2.02-0.576,3.6c0.101,2.173,1.208,3.775,2.627,4.689c0.591,1.549,1.575,2.815,2.412,3.894
				c0.494,0.636,1.319,1.698,1.35,2.078c0,0.02,0,0.038,0,0.058c-0.162,0.249-0.95,1.185-3.94,1.965
				c-3.897,1.016-6.757,3.734-8.27,7.86c-1.033,2.819-1.063,5.332-1.063,5.609c0,1.377,0.879,2.6,2.184,3.038
				c0.292,0.098,7.271,2.4,18.517,2.4s18.226-2.303,18.517-2.4c1.305-0.438,2.184-1.661,2.184-3.038c0-0.277-0.03-2.79-1.063-5.609
				c-1.512-4.126-4.373-6.845-8.272-7.86c-3.016-0.787-3.799-1.756-3.926-1.942c-0.007-0.009-0.012-0.013-0.016-0.013
				c-0.014,0-0.013,0.042-0.012,0.061c0,0.005,0,0.037,0,0.066c-0.008,0.033-0.036,0.374-0.036,0.374l-3.154-0.573h3.205
				c0,0.029-0.004,0.052-0.006,0.059c0.083-0.303,0.771-1.063,1.225-1.567c0.991-1.098,2.27-2.515,2.907-4.455
				c1.122-0.925,2.161-2.438,2.264-4.688c0.07-1.566-0.183-2.726-0.563-3.578c0.862-6.665-1.635-10.082-2.175-10.731
				c-1.433-1.724-3.448-2.635-5.828-2.635c-0.302,0-0.611,0.015-0.927,0.045C110.697,77.181,108.779,76.469,106.592,76.469
				L106.592,76.469z"/>
		</g>
		<g>
			<path d="M75.601,140.508c-13.422,0-21.707-2.63-22.053-2.741l-2.108-0.682v-2.216c0-0.319,0.035-3.218,1.232-6.486
				c1.728-4.716,4.984-7.819,9.417-8.976c3.994-1.043,5.206-2.452,5.371-2.97v-0.274c0-0.507-0.933-1.54-1.682-2.371
				c-1.244-1.377-2.736-3.029-3.412-5.311c-1.271-0.976-2.501-2.649-2.618-5.215c-0.086-1.894,0.245-3.228,0.712-4.162
				c-0.411-3.084-0.943-10.363,2.398-14.388c1.542-1.858,3.694-2.841,6.223-2.841c0.256,0,0.518,0.01,0.783,0.03
				c1.365-0.958,3.735-2.264,6.513-2.264c4.485,0,8.042,1.499,10.57,4.454c4.08,4.769,3.993,11.951,3.751,14.919
				c0.491,0.938,0.846,2.296,0.758,4.25c-0.119,2.6-1.507,4.247-3.019,5.127c-0.658,1.89-1.869,3.448-2.891,4.764
				c-0.845,1.088-1.803,2.32-1.803,3.007v0.274c0.165,0.519,1.377,1.927,5.371,2.97c4.432,1.156,7.688,4.26,9.417,8.976
				c1.198,3.269,1.233,6.167,1.233,6.486v2.216l-2.108,0.682C97.309,137.878,89.024,140.508,75.601,140.508z"/>
			<path d="M76.376,82.688c13.859,0,11.164,17.2,11.164,17.2s0.998,0.498,0.874,3.24c-0.125,2.744-2.565,3.012-2.565,3.012
				c-0.417,3.886-5.15,6.586-5.15,10.023c0,0-0.728,4.004,7.646,6.19c8.374,2.185,8.374,12.516,8.374,12.516
				s-8.02,2.594-21.117,2.594c-13.096,0-21.116-2.594-21.116-2.594s0-10.331,8.373-12.516c8.375-2.187,7.647-6.19,7.647-6.19
				c0-3.438-5.014-5.389-5.43-9.626c0,0-2.16-0.665-2.286-3.409c-0.124-2.742,0.874-3.24,0.874-3.24s-2.802-14.967,5.417-14.967
				c0.506,0,1.053,0.057,1.646,0.177C70.726,85.098,73.317,82.688,76.376,82.688 M76.376,76.598c-3.027,0-5.609,1.146-7.38,2.233
				c-3.38,0.022-6.389,1.42-8.481,3.94c-2.303,2.774-3.447,6.824-3.401,12.037c0.013,1.448,0.115,2.777,0.229,3.832
				c-0.455,1.237-0.727,2.799-0.638,4.763c0.135,2.957,1.391,5.278,3.055,6.857c0.939,2.424,2.513,4.194,3.688,5.495
				c-0.518,0.221-1.212,0.466-2.129,0.705c-5.362,1.399-9.448,5.261-11.505,10.874c-1.378,3.762-1.418,7.159-1.418,7.534v4.431
				l4.216,1.363c0.365,0.118,9.094,2.89,22.99,2.89c13.897,0,22.626-2.771,22.991-2.89l4.216-1.363v-4.431
				c0-0.375-0.04-3.772-1.419-7.534c-2.057-5.613-6.144-9.475-11.508-10.874c-1.088-0.284-1.862-0.576-2.401-0.827
				c0.164-0.215,0.328-0.427,0.47-0.609c0.954-1.228,2.13-2.742,2.964-4.618c1.969-1.5,3.44-3.881,3.583-7.001
				c0.093-2.058-0.209-3.674-0.703-4.938c0.218-3.779-0.047-11.105-4.534-16.351C87.105,79.6,83.122,76.598,76.376,76.598
				L76.376,76.598z"/>
			<path fill="#00FFD9" d="M76.376,82.688c13.859,0,11.164,17.2,11.164,17.2s0.998,0.498,0.874,3.24
				c-0.125,2.744-2.565,3.012-2.565,3.012c-0.417,3.886-5.15,6.586-5.15,10.023c0,0-0.728,4.004,7.646,6.19
				c8.374,2.185,8.374,12.516,8.374,12.516s-8.02,2.594-21.117,2.594c-13.096,0-21.116-2.594-21.116-2.594s0-10.331,8.373-12.516
				c8.375-2.187,7.647-6.19,7.647-6.19c0-3.438-5.014-5.389-5.43-9.626c0,0-2.16-0.665-2.286-3.409
				c-0.124-2.742,0.874-3.24,0.874-3.24s-2.802-14.967,5.417-14.967c0.506,0,1.053,0.057,1.646,0.177
				C70.726,85.098,73.317,82.688,76.376,82.688 M76.376,79.803c-2.77,0-5.131,1.32-6.469,2.268
				c-0.281-0.022-0.557-0.034-0.827-0.034c-2.479,0-4.588,0.962-6.1,2.782c-3.32,4-2.766,11.279-2.355,14.314
				c-0.467,0.913-0.803,2.231-0.718,4.125c0.116,2.538,1.344,4.183,2.598,5.129c0.661,2.274,2.151,3.924,3.391,5.298
				c0.808,0.896,1.724,1.909,1.724,2.479c0,0.085,0.004,0.17,0.011,0.254c-0.099,0.507-1.262,2.038-5.502,3.146
				c-4.379,1.143-7.597,4.212-9.306,8.875c-1.188,3.243-1.223,6.115-1.223,6.432c0,1.251,0.807,2.359,1.997,2.745
				c0.345,0.111,8.607,2.733,22.004,2.733c13.398,0,21.66-2.622,22.005-2.733c1.19-0.386,1.997-1.494,1.997-2.745
				c0-0.316-0.035-3.188-1.223-6.432c-1.709-4.664-4.928-7.732-9.308-8.875c-4.239-1.107-5.402-2.639-5.5-3.145
				c0.007-0.085,0.011-0.17,0.011-0.255c0-0.741,0.976-1.997,1.836-3.104c1.021-1.314,2.233-2.875,2.88-4.76
				c1.447-0.803,2.873-2.351,2.996-5.04c0.088-1.952-0.271-3.294-0.761-4.209c0.243-2.915,0.354-10.098-3.71-14.849
				C84.327,81.282,80.812,79.803,76.376,79.803L76.376,79.803z"/>
		</g>
	</g>
</g>
</svg>
